<?xml version="1.0" encoding="iso-8859-1"?>
<!-- Generator: Adobe Illustrator 18.0.0, SVG Export Plug-In . SVG Version: 6.00 Build 0)  -->
<!DOCTYPE svg PUBLIC "-//W3C//DTD SVG 1.1//EN" "http://www.w3.org/Graphics/SVG/1.1/DTD/svg11.dtd">
<svg version="1.1" id="Capa_1" xmlns="http://www.w3.org/2000/svg" xmlns:xlink="http://www.w3.org/1999/xlink" x="0px" y="0px"
	 viewBox="0 0 297 297" style="enable-background:new 0 0 297 297;" xml:space="preserve">
<g>
	<g>
		<g>
			<path style="fill:#C3A99A;" d="M16.5,288.75L16.5,288.75c-9.113,0-16.5-7.387-16.5-16.5V24.75c0-9.113,7.387-16.5,16.5-16.5h0
				c9.113,0,16.5,7.387,16.5,16.5v247.5C33,281.363,25.613,288.75,16.5,288.75z"/>
		</g>
	</g>
	<g style="opacity:0.6;">
		<path style="fill:#BDC3C7;" d="M16.5,8.25c-3.009,0-5.821,0.818-8.25,2.225c4.927,2.854,8.25,8.171,8.25,14.275v247.5
			c0,6.104-3.323,11.42-8.25,14.275c2.429,1.407,5.241,2.225,8.25,2.225c9.113,0,16.5-7.387,16.5-16.5V24.75
			C33,15.637,25.613,8.25,16.5,8.25z"/>
	</g>
	<g>
		<g>
			<path style="fill:#C3A99A;" d="M280.5,288.75L280.5,288.75c-9.113,0-16.5-7.387-16.5-16.5V24.75c0-9.113,7.387-16.5,16.5-16.5h0
				c9.113,0,16.5,7.387,16.5,16.5v247.5C297,281.363,289.613,288.75,280.5,288.75z"/>
		</g>
	</g>
	<g style="opacity:0.6;">
		<path style="fill:#BDC3C7;" d="M280.5,8.25c-3.009,0-5.821,0.818-8.25,2.225c4.927,2.854,8.25,8.171,8.25,14.275v247.5
			c0,6.104-3.323,11.42-8.25,14.275c2.429,1.407,5.241,2.225,8.25,2.225c9.113,0,16.5-7.387,16.5-16.5V24.75
			C297,15.637,289.613,8.25,280.5,8.25z"/>
	</g>
	<g>
		<g>
			<rect x="33" y="57.75" style="fill:#998272;" width="231" height="16.5"/>
		</g>
	</g>
	<g>
		<g>
			<rect x="33" y="107.25" style="fill:#998272;" width="231" height="16.5"/>
		</g>
	</g>
	<g>
		<g>
			<rect x="33" y="156.75" style="fill:#998272;" width="231" height="16.5"/>
		</g>
	</g>
	<g>
		<g>
			<rect x="33" y="206.25" style="fill:#998272;" width="231" height="16.5"/>
		</g>
	</g>
	<g>
		<g>
			<path style="fill:#17AB93;" d="M82.5,90.75L82.5,90.75c-9.113,0-16.5-7.387-16.5-16.5v-16.5c0-9.113,7.387-16.5,16.5-16.5h0
				c9.113,0,16.5,7.387,16.5,16.5v16.5C99,83.363,91.613,90.75,82.5,90.75z"/>
		</g>
	</g>
	<g>
		<g>
			<path style="fill:#17AB93;" d="M231,140.25L231,140.25c-9.113,0-16.5-7.387-16.5-16.5v-16.5c0-9.113,7.387-16.5,16.5-16.5h0
				c9.113,0,16.5,7.387,16.5,16.5v16.5C247.5,132.863,240.113,140.25,231,140.25z"/>
		</g>
	</g>
	<g>
		<g>
			<path style="fill:#17AB93;" d="M99,189.75L99,189.75c-9.113,0-16.5-7.387-16.5-16.5v-16.5c0-9.113,7.387-16.5,16.5-16.5h0
				c9.113,0,16.5,7.387,16.5,16.5v16.5C115.5,182.363,108.113,189.75,99,189.75z"/>
		</g>
	</g>
	<g>
		<g>
			<path style="fill:#9ADAD9;" d="M148.5,189.75L148.5,189.75c-9.113,0-16.5-7.387-16.5-16.5v-16.5c0-9.113,7.387-16.5,16.5-16.5h0
				c9.113,0,16.5,7.387,16.5,16.5v16.5C165,182.363,157.613,189.75,148.5,189.75z"/>
		</g>
	</g>
	<g>
		<g>
			<path style="fill:#F5DB91;" d="M198,239.25L198,239.25c-9.113,0-16.5-7.387-16.5-16.5v-16.5c0-9.113,7.387-16.5,16.5-16.5h0
				c9.113,0,16.5,7.387,16.5,16.5v16.5C214.5,231.863,207.113,239.25,198,239.25z"/>
		</g>
	</g>
	<g>
		<g>
			<path style="fill:#F5DB91;" d="M132,90.75L132,90.75c-9.113,0-16.5-7.387-16.5-16.5v-16.5c0-9.113,7.387-16.5,16.5-16.5h0
				c9.113,0,16.5,7.387,16.5,16.5v16.5C148.5,83.363,141.113,90.75,132,90.75z"/>
		</g>
	</g>
	<g>
		<g>
			<path style="fill:#9ADAD9;" d="M181.5,90.75L181.5,90.75c-9.113,0-16.5-7.387-16.5-16.5v-16.5c0-9.113,7.387-16.5,16.5-16.5h0
				c9.113,0,16.5,7.387,16.5,16.5v16.5C198,83.363,190.613,90.75,181.5,90.75z"/>
		</g>
	</g>
	<g style="opacity:0.58;">
		<path style="fill:#BDC3C7;" d="M82.5,41.25c-3.009,0-5.821,0.818-8.25,2.225c4.927,2.854,8.25,8.171,8.25,14.275v16.5
			c0,6.104-3.323,11.42-8.25,14.275c2.429,1.407,5.241,2.225,8.25,2.225c9.113,0,16.5-7.387,16.5-16.5v-16.5
			C99,48.637,91.613,41.25,82.5,41.25z"/>
	</g>
	<g style="opacity:0.58;">
		<path style="fill:#BDC3C7;" d="M231,90.75c-3.009,0-5.821,0.818-8.25,2.225c4.927,2.854,8.25,8.171,8.25,14.275v16.5
			c0,6.104-3.323,11.42-8.25,14.275c2.429,1.407,5.241,2.225,8.25,2.225c9.113,0,16.5-7.387,16.5-16.5v-16.5
			C247.5,98.137,240.113,90.75,231,90.75z"/>
	</g>
	<g style="opacity:0.58;">
		<path style="fill:#BDC3C7;" d="M99,140.25c-3.009,0-5.821,0.818-8.25,2.225c4.927,2.854,8.25,8.171,8.25,14.275v16.5
			c0,6.104-3.323,11.42-8.25,14.275c2.429,1.407,5.241,2.225,8.25,2.225c9.113,0,16.5-7.387,16.5-16.5v-16.5
			C115.5,147.637,108.113,140.25,99,140.25z"/>
	</g>
	<g style="opacity:0.58;">
		<path style="fill:#BDC3C7;" d="M148.5,140.25c-3.009,0-5.821,0.818-8.25,2.225c4.927,2.854,8.25,8.171,8.25,14.275v16.5
			c0,6.104-3.323,11.42-8.25,14.275c2.429,1.407,5.241,2.225,8.25,2.225c9.113,0,16.5-7.387,16.5-16.5v-16.5
			C165,147.637,157.613,140.25,148.5,140.25z"/>
	</g>
	<g style="opacity:0.58;">
		<path style="fill:#BDC3C7;" d="M198,189.75c-3.009,0-5.821,0.818-8.25,2.225c4.927,2.854,8.25,8.171,8.25,14.275v16.5
			c0,6.104-3.323,11.42-8.25,14.275c2.429,1.407,5.241,2.225,8.25,2.225c9.113,0,16.5-7.387,16.5-16.5v-16.5
			C214.5,197.137,207.113,189.75,198,189.75z"/>
	</g>
	<g style="opacity:0.58;">
		<path style="fill:#BDC3C7;" d="M132,41.25c-3.009,0-5.821,0.818-8.25,2.225c4.927,2.854,8.25,8.171,8.25,14.275v16.5
			c0,6.104-3.323,11.42-8.25,14.275c2.429,1.407,5.241,2.225,8.25,2.225c9.113,0,16.5-7.387,16.5-16.5v-16.5
			C148.5,48.637,141.113,41.25,132,41.25z"/>
	</g>
	<g style="opacity:0.58;">
		<path style="fill:#BDC3C7;" d="M181.5,41.25c-3.009,0-5.821,0.818-8.25,2.225c4.927,2.854,8.25,8.171,8.25,14.275v16.5
			c0,6.104-3.323,11.42-8.25,14.275c2.429,1.407,5.241,2.225,8.25,2.225c9.113,0,16.5-7.387,16.5-16.5v-16.5
			C198,48.637,190.613,41.25,181.5,41.25z"/>
	</g>
</g>
<g>
</g>
<g>
</g>
<g>
</g>
<g>
</g>
<g>
</g>
<g>
</g>
<g>
</g>
<g>
</g>
<g>
</g>
<g>
</g>
<g>
</g>
<g>
</g>
<g>
</g>
<g>
</g>
<g>
</g>
</svg>
